HIERARCHY
ROOT Hips
{
	OFFSET	0.00	0.00	0.00
	CHANNELS 6 Xposition Yposition Zposition Zrotation Xrotation Yrotation
	JOINT LeftUpLeg
	{
		OFFSET	 0.126116	-0.014019	-0.065224
		CHANNELS 3 Zrotation Xrotation Yrotation
		JOINT LeftLeg
		{
			OFFSET	 0.000000	 0.000000	 0.569914
			CHANNELS 3 Zrotation Xrotation Yrotation
			JOINT LeftFoot
			{
				OFFSET	 0.000000	 0.000000	 0.544423
				CHANNELS 3 Zrotation Xrotation Yrotation
				JOINT LeftToeBase
				{
					OFFSET	 0.000000	 0.000000	 0.207117
					CHANNELS 3 Zrotation Xrotation Yrotation
					End Site
					{
						OFFSET	 0.000000	 0.000000	 0.207117
					}
				}
			}
		}
	}
	JOINT RightUpLeg
	{
		OFFSET	-0.124023	-0.008373	-0.065224
		CHANNELS 3 Zrotation Xrotation Yrotation
		JOINT RightLeg
		{
			OFFSET	 0.000000	 0.000000	 0.570047
			CHANNELS 3 Zrotation Xrotation Yrotation
			JOINT RightFoot
			{
				OFFSET	 0.000000	 0.000000	 0.544354
				CHANNELS 3 Zrotation Xrotation Yrotation
				JOINT RightToeBase
				{
					OFFSET	 0.000000	 0.000000	 0.207540
					CHANNELS 3 Zrotation Xrotation Yrotation
					End Site
					{
						OFFSET	 0.000000	 0.000000	 0.207540
					}
				}
			}
		}
	}
	JOINT Spine
	{
		OFFSET	 0.000184	-0.007763	 0.117403
		CHANNELS 3 Zrotation Xrotation Yrotation
		JOINT Spine1
		{
			OFFSET	 0.000000	 0.000000	 0.137269
			CHANNELS 3 Zrotation Xrotation Yrotation
			JOINT Spine2
			{
				OFFSET	 0.000000	 0.000000	 0.156879
				CHANNELS 3 Zrotation Xrotation Yrotation
				JOINT LeftShoulder
				{
					OFFSET	 0.080501	-0.002496	 0.160144
					CHANNELS 3 Zrotation Xrotation Yrotation
					JOINT LeftArm
					{
						OFFSET	 0.000000	 0.000000	 0.164363
						CHANNELS 3 Zrotation Xrotation Yrotation
						JOINT LeftForeArm
						{
							OFFSET	 0.000000	 0.000000	 0.364576
							CHANNELS 3 Zrotation Xrotation Yrotation
							JOINT LeftHand
							{
								OFFSET	 0.000000	 0.000000	 0.360812
								CHANNELS 3 Zrotation Xrotation Yrotation
								JOINT LeftHandIndex1
								{
									OFFSET	 0.000000	 0.000000	 0.086006
									CHANNELS 3 Zrotation Xrotation Yrotation
									JOINT LeftHandIndex2
									{
										OFFSET	 0.000000	 0.000000	 0.047236
										CHANNELS 3 Zrotation Xrotation Yrotation
										JOINT LeftHandIndex3
										{
											OFFSET	-0.004284	-0.000551	 0.038166
											CHANNELS 3 Zrotation Xrotation Yrotation
											End Site
											{
												OFFSET	-0.004284	-0.000551	 0.038166
											}
										}
									}
								}
							}
						}
					}
				}
				JOINT Neck
				{
					OFFSET	 0.000000	 0.000000	 0.176489
					CHANNELS 3 Zrotation Xrotation Yrotation
					JOINT Head
					{
						OFFSET	 0.000000	-0.001747	 0.077940
						CHANNELS 3 Zrotation Xrotation Yrotation
						End Site
						{
							OFFSET	 0.000000	-0.001747	 0.077940
						}
					}
				}
				JOINT RightShoulder
				{
					OFFSET	-0.080363	 0.000306	 0.159706
					CHANNELS 3 Zrotation Xrotation Yrotation
					JOINT RightArm
					{
						OFFSET	 0.000000	 0.000000	 0.164196
						CHANNELS 3 Zrotation Xrotation Yrotation
						JOINT RightForeArm
						{
							OFFSET	 0.000000	 0.000000	 0.365611
							CHANNELS 3 Zrotation Xrotation Yrotation
							JOINT RightHand
							{
								OFFSET	 0.000000	 0.000000	 0.360648
								CHANNELS 3 Zrotation Xrotation Yrotation
								JOINT RightHandIndex1
								{
									OFFSET	 0.000000	 0.000000	 0.069977
									CHANNELS 3 Zrotation Xrotation Yrotation
									JOINT RightHandIndex2
									{
										OFFSET	 0.000000	 0.000000	 0.052305
										CHANNELS 3 Zrotation Xrotation Yrotation
										JOINT RightHandIndex3
										{
											OFFSET	 0.009002	-0.000782	 0.042196
											CHANNELS 3 Zrotation Xrotation Yrotation
											End Site
											{
												OFFSET	 0.009002	-0.000782	 0.042196
											}
										}
									}
								}
							}
						}
					}
				}
			}
		}
	}
}
MOTION
Frames:    6
Frame Time: 0.03333334
-0.000646	 0.019804	 1.270110	 0.002597	-0.001192	-0.189306	 14.221680	-2.104573	 175.617300	 1.491519	-10.380970	-0.603833	-10.034180	 69.081990	 4.309017	-2.385833	 28.452760	 0.000004	-14.259120	-3.101083	-175.372700	-1.462037	-11.779500	 0.674747	 10.058620	 69.709250	-4.458182	 2.384658	 28.388730	 0.000004	 3.340043	 2.772863	-0.109787	 2.181286	 3.577642	 0.863560	-6.566020	-4.365086	-1.421487	-91.776240	 78.527450	-180.000000	 47.070480	 33.793530	-61.557530	-8.652981	 0.183520	-0.678438	-29.443910	-0.011953	-4.349765	-2.635965	 4.993658	 6.788941	-5.165319	 0.784187	 3.516649	-5.225038	 0.466231	 0.424329	-0.000002	-3.783157	-0.089647	-6.387793	 4.674816	 0.260993	 89.782160	 78.203900	 179.999900	-62.118430	 41.190860	 57.317970	 8.688196	 0.212980	 0.702176	 28.916920	-0.809290	 8.945048	 6.112037	 4.509576	-0.364401	 4.968462	 1.518543	-9.347576	 5.168945	 0.703820	 2.021906
-0.000646	 0.020343	 1.262109	 0.002831	-0.001638	-0.186168	 15.989680	-5.635714	 175.748400	 1.390627	-17.276000	-1.025171	-12.487640	 72.352340	 6.914519	-2.385833	 28.452760	 0.000004	-16.031770	-6.391475	-175.493600	-1.361960	-18.162940	 1.061533	 12.355640	 72.736980	-6.889062	 2.384658	 28.388730	 0.000004	-3.723857	 2.832595	-0.118893	 2.173544	 3.369617	 0.873372	-6.545991	-4.099433	-1.398372	-91.776160	 78.527430	 180.000000	 46.720150	 33.516990	-61.082770	-12.338450	 0.357125	-2.459287	-29.962200	 0.106341	-4.348888	-2.635965	 4.993658	 6.788941	-5.165319	 0.784187	 3.516649	-5.225038	 0.466231	 0.424329	-0.000002	-3.783157	-0.089647	-6.380630	 4.802043	 0.267802	 89.782140	 78.203870	 180.000000	-61.132080	 40.710370	 58.277840	 11.961110	 0.386613	 2.486574	 29.245630	-0.841287	 8.826522	 6.112037	 4.509576	-0.364401	 4.968462	 1.518543	-9.347576	 5.168945	 0.703820	 2.021906
-0.000642	 0.020859	 1.254529	 0.003036	-0.002012	-0.182571	 17.738570	-8.074138	 175.794400	 1.289206	-21.930880	-1.327219	-14.685000	 74.494490	 9.213282	-2.385833	 28.452760	 0.000004	-17.778820	-8.745768	-175.545700	-1.261720	-22.630430	 1.348964	 14.461290	 74.799110	-9.086383	 2.384658	 28.388730	 0.000004	-10.161710	 2.889143	-0.126685	 2.158858	 3.172279	 0.879494	-6.504419	-3.849036	-1.371834	-91.776200	 78.527430	-180.000000	 46.370570	 33.237510	-60.590380	-15.766980	 0.727883	-4.101560	-30.451690	 0.217878	-4.346391	-2.635965	 4.993658	 6.788941	-5.165319	 0.784187	 3.516649	-5.225038	 0.466231	 0.424329	-0.000002	-3.783157	-0.089647	-6.351491	 4.925402	 0.273434	 89.782100	 78.203890	 180.000000	-60.019030	 39.910130	 59.990130	 14.757510	 0.753898	 4.130007	 29.829630	-1.143102	 8.578631	 6.112037	 4.509576	-0.364401	 4.968462	 1.518543	-9.347576	 5.168945	 0.703820	 2.021906
-0.000638	 0.021369	 1.247118	 0.003199	-0.002339	-0.178450	 19.470640	-10.073320	 175.808800	 1.185025	-25.681100	-1.585183	-16.906410	 76.175930	 11.514760	-2.385833	 28.452760	 0.000004	-19.509240	-10.699420	-175.571400	-1.158765	-26.275060	 1.597554	 16.608900	 76.441960	-11.306720	 2.384658	 28.388730	 0.000004	-16.014300	 2.943930	-0.133429	 2.137684	 2.980786	 0.882320	-6.442758	-3.607524	-1.341875	-91.776120	 78.527430	 179.999900	 46.009110	 32.949740	-60.063510	-19.017910	 1.266531	-5.631953	-30.927900	 0.325940	-4.342507	-2.635965	 4.993658	 6.788941	-5.165319	 0.784187	 3.516649	-5.225038	 0.466231	 0.424329	-0.000002	-3.783157	-0.089647	-6.302014	 5.047648	 0.278042	 89.782070	 78.203920	-180.000000	-57.177560	 38.313330	 57.270720	 16.758020	 6.103403	 13.173850	 30.457330	-1.520911	 8.303167	 6.112037	 4.509576	-0.364401	 4.968462	 1.518543	-9.347576	 5.168945	 0.703820	 2.021906
-0.000638	 0.021895	 1.239655	 0.003563	-0.002080	-0.173019	 21.233890	-11.863000	 175.805800	 1.074294	-28.985000	-1.826250	-19.314930	 77.619200	 13.992140	-2.385833	 28.452760	 0.000004	-21.272080	-12.458260	-175.584300	-1.049310	-29.507240	 1.831431	 18.952710	 77.864520	-13.712490	 2.384658	 28.388730	 0.000004	-21.322890	 2.998107	-0.139923	 2.109307	 2.788963	 0.882437	-6.359412	-3.367048	-1.308049	-91.776120	 78.527490	 179.999900	 45.633650	 32.647110	-59.502780	-22.176310	 1.963130	-7.078187	-31.407630	 0.434175	-4.337033	-2.635965	 4.993658	 6.788941	-5.165319	 0.784187	 3.516649	-5.225038	 0.466231	 0.424329	-0.000002	-3.783157	-0.089647	-6.230870	 5.172535	 0.281708	 89.782170	 78.203900	 179.999900	-54.718230	 36.975420	 58.362210	 18.479450	 9.011930	 17.304750	 31.041590	-1.963512	 7.977473	 6.112037	 4.509576	-0.364401	 4.968462	 1.518543	-9.347576	 5.168945	 0.703820	 2.021906
-0.000638	 0.022489	 1.231201	 0.003989	-0.001399	-0.165928	 23.228780	-13.691180	 175.790300	 0.942427	-32.308050	-2.084831	-22.310960	 79.028820	 17.054720	-2.385833	 28.452760	 0.000004	-23.268470	-14.260290	-175.590000	-0.919005	-32.771130	 2.083314	 21.885350	 79.262540	-16.704580	 2.384658	 28.388730	 0.000004	-26.378250	 3.057827	-0.146243	 2.069159	 2.575758	 0.878482	-6.240405	-3.101459	-1.265676	-91.776090	 78.527470	 179.999900	 45.194230	 32.294380	-58.828360	-25.544320	 2.898099	-8.567065	-31.945910	 0.554628	-4.329141	-2.635965	 4.993658	 6.788941	-5.165319	 0.784187	 3.516649	-5.225038	 0.466231	 0.424329	-0.000002	-3.783157	-0.089647	-6.125411	 5.314334	 0.284534	 89.782200	 78.203890	 179.999900	-51.824680	 35.464420	 61.279240	 20.012160	 11.282240	 20.011950	 31.377300	-2.576735	 7.432516	 6.112037	 4.509576	-0.364401	 4.968462	 1.518543	-9.347576	 5.168945	 0.703820	 2.021906
